<mxfile host="app.diagrams.net" agent="Mozilla/5.0 (Windows NT 10.0; Win64; x64) AppleWebKit/537.36 (KHTML, like Gecko) Chrome/129.0.0.0 Safari/537.36" version="24.7.17">
  <diagram name="Página-1" id="rNYwE6A1nVFz-UQeRWPY">
    <mxGraphModel dx="1195" dy="650" grid="1" gridSize="10" guides="1" tooltips="1" connect="1" arrows="1" fold="1" page="1" pageScale="1" pageWidth="827" pageHeight="1169" math="0" shadow="0">
      <root>
        <mxCell id="0" />
        <mxCell id="1" parent="0" />
        <mxCell id="BYPssGS1QmJ-BvraYVSo-1" value="Garantia (Classe C)" style="swimlane;fontStyle=1;align=center;verticalAlign=top;childLayout=stackLayout;horizontal=1;startSize=26;horizontalStack=0;resizeParent=1;resizeParentMax=0;resizeLast=0;collapsible=1;marginBottom=0;whiteSpace=wrap;html=1;" parent="1" vertex="1">
          <mxGeometry x="30" y="690" width="220" height="140" as="geometry" />
        </mxCell>
        <mxCell id="BYPssGS1QmJ-BvraYVSo-2" value="&lt;div&gt;- Stringo: DataDeVencimento&lt;/div&gt;&lt;div&gt;- Stringo: Status&lt;/div&gt;" style="text;strokeColor=none;fillColor=none;align=left;verticalAlign=top;spacingLeft=4;spacingRight=4;overflow=hidden;rotatable=0;points=[[0,0.5],[1,0.5]];portConstraint=eastwest;whiteSpace=wrap;html=1;" parent="BYPssGS1QmJ-BvraYVSo-1" vertex="1">
          <mxGeometry y="26" width="220" height="64" as="geometry" />
        </mxCell>
        <mxCell id="BYPssGS1QmJ-BvraYVSo-3" value="" style="line;strokeWidth=1;fillColor=none;align=left;verticalAlign=middle;spacingTop=-1;spacingLeft=3;spacingRight=3;rotatable=0;labelPosition=right;points=[];portConstraint=eastwest;strokeColor=inherit;" parent="BYPssGS1QmJ-BvraYVSo-1" vertex="1">
          <mxGeometry y="90" width="220" height="8" as="geometry" />
        </mxCell>
        <mxCell id="BYPssGS1QmJ-BvraYVSo-4" value="+ VerificarValidade" style="text;strokeColor=none;fillColor=none;align=left;verticalAlign=top;spacingLeft=4;spacingRight=4;overflow=hidden;rotatable=0;points=[[0,0.5],[1,0.5]];portConstraint=eastwest;whiteSpace=wrap;html=1;" parent="BYPssGS1QmJ-BvraYVSo-1" vertex="1">
          <mxGeometry y="98" width="220" height="42" as="geometry" />
        </mxCell>
        <mxCell id="BYPssGS1QmJ-BvraYVSo-10" value="Eletrônico (Classe A)" style="swimlane;fontStyle=1;align=center;verticalAlign=top;childLayout=stackLayout;horizontal=1;startSize=26;horizontalStack=0;resizeParent=1;resizeParentMax=0;resizeLast=0;collapsible=1;marginBottom=0;whiteSpace=wrap;html=1;" parent="1" vertex="1">
          <mxGeometry x="20" y="370" width="220" height="160" as="geometry" />
        </mxCell>
        <mxCell id="BYPssGS1QmJ-BvraYVSo-11" value="- int: NumeroDeSerie&lt;div&gt;- String: Marca&lt;/div&gt;&lt;div&gt;- String: Modelo&lt;/div&gt;&lt;div&gt;- String: Condicao&lt;/div&gt;&lt;div&gt;- int: Valor&lt;/div&gt;&lt;div&gt;- Garantia: Garantia&lt;/div&gt;" style="text;strokeColor=none;fillColor=none;align=left;verticalAlign=top;spacingLeft=4;spacingRight=4;overflow=hidden;rotatable=0;points=[[0,0.5],[1,0.5]];portConstraint=eastwest;whiteSpace=wrap;html=1;" parent="BYPssGS1QmJ-BvraYVSo-10" vertex="1">
          <mxGeometry y="26" width="220" height="94" as="geometry" />
        </mxCell>
        <mxCell id="BYPssGS1QmJ-BvraYVSo-12" value="" style="line;strokeWidth=1;fillColor=none;align=left;verticalAlign=middle;spacingTop=-1;spacingLeft=3;spacingRight=3;rotatable=0;labelPosition=right;points=[];portConstraint=eastwest;strokeColor=inherit;" parent="BYPssGS1QmJ-BvraYVSo-10" vertex="1">
          <mxGeometry y="120" width="220" height="8" as="geometry" />
        </mxCell>
        <mxCell id="BYPssGS1QmJ-BvraYVSo-13" value="&lt;div&gt;+ toString: String&lt;br&gt;&lt;/div&gt;" style="text;strokeColor=none;fillColor=none;align=left;verticalAlign=top;spacingLeft=4;spacingRight=4;overflow=hidden;rotatable=0;points=[[0,0.5],[1,0.5]];portConstraint=eastwest;whiteSpace=wrap;html=1;" parent="BYPssGS1QmJ-BvraYVSo-10" vertex="1">
          <mxGeometry y="128" width="220" height="32" as="geometry" />
        </mxCell>
        <mxCell id="BYPssGS1QmJ-BvraYVSo-15" value="Smartphone (Classe B)" style="swimlane;fontStyle=1;align=center;verticalAlign=top;childLayout=stackLayout;horizontal=1;startSize=26;horizontalStack=0;resizeParent=1;resizeParentMax=0;resizeLast=0;collapsible=1;marginBottom=0;whiteSpace=wrap;html=1;" parent="1" vertex="1">
          <mxGeometry x="310" y="400" width="220" height="120" as="geometry" />
        </mxCell>
        <mxCell id="BYPssGS1QmJ-BvraYVSo-16" value="&lt;div&gt;&lt;span style=&quot;background-color: initial;&quot;&gt;- memoria: String&lt;/span&gt;&lt;br&gt;&lt;/div&gt;&lt;div&gt;- cor: Cor&lt;/div&gt;" style="text;strokeColor=none;fillColor=none;align=left;verticalAlign=top;spacingLeft=4;spacingRight=4;overflow=hidden;rotatable=0;points=[[0,0.5],[1,0.5]];portConstraint=eastwest;whiteSpace=wrap;html=1;" parent="BYPssGS1QmJ-BvraYVSo-15" vertex="1">
          <mxGeometry y="26" width="220" height="54" as="geometry" />
        </mxCell>
        <mxCell id="BYPssGS1QmJ-BvraYVSo-17" value="" style="line;strokeWidth=1;fillColor=none;align=left;verticalAlign=middle;spacingTop=-1;spacingLeft=3;spacingRight=3;rotatable=0;labelPosition=right;points=[];portConstraint=eastwest;strokeColor=inherit;" parent="BYPssGS1QmJ-BvraYVSo-15" vertex="1">
          <mxGeometry y="80" width="220" height="8" as="geometry" />
        </mxCell>
        <mxCell id="BYPssGS1QmJ-BvraYVSo-18" value="+toString" style="text;strokeColor=none;fillColor=none;align=left;verticalAlign=top;spacingLeft=4;spacingRight=4;overflow=hidden;rotatable=0;points=[[0,0.5],[1,0.5]];portConstraint=eastwest;whiteSpace=wrap;html=1;" parent="BYPssGS1QmJ-BvraYVSo-15" vertex="1">
          <mxGeometry y="88" width="220" height="32" as="geometry" />
        </mxCell>
        <mxCell id="BYPssGS1QmJ-BvraYVSo-19" value="Cor &amp;lt;&amp;lt;enum&amp;gt;&amp;gt;" style="swimlane;fontStyle=1;align=center;verticalAlign=top;childLayout=stackLayout;horizontal=1;startSize=26;horizontalStack=0;resizeParent=1;resizeParentMax=0;resizeLast=0;collapsible=1;marginBottom=0;whiteSpace=wrap;html=1;" parent="1" vertex="1">
          <mxGeometry x="600" y="380" width="200" height="116" as="geometry" />
        </mxCell>
        <mxCell id="ycWbgAkya2sAXwkcMK6t-5" value="&lt;div&gt;+preto&lt;/div&gt;&lt;div&gt;+branco&lt;/div&gt;&lt;div&gt;+prata&lt;/div&gt;&lt;div&gt;+azul&lt;/div&gt;&lt;div&gt;+vermelho&lt;/div&gt;" style="text;html=1;align=left;verticalAlign=middle;resizable=0;points=[];autosize=1;strokeColor=none;fillColor=none;" parent="BYPssGS1QmJ-BvraYVSo-19" vertex="1">
          <mxGeometry y="26" width="200" height="90" as="geometry" />
        </mxCell>
        <mxCell id="BYPssGS1QmJ-BvraYVSo-23" value="Produto(Super Classe)" style="swimlane;fontStyle=1;align=center;verticalAlign=top;childLayout=stackLayout;horizontal=1;startSize=26;horizontalStack=0;resizeParent=1;resizeParentMax=0;resizeLast=0;collapsible=1;marginBottom=0;whiteSpace=wrap;html=1;" parent="1" vertex="1">
          <mxGeometry x="310" y="150" width="220" height="120" as="geometry" />
        </mxCell>
        <mxCell id="ycWbgAkya2sAXwkcMK6t-2" value="- codigo: String&amp;nbsp;&lt;div&gt;- nome: String&lt;/div&gt;&lt;div&gt;- preco: double&lt;/div&gt;" style="text;strokeColor=none;fillColor=none;align=left;verticalAlign=top;spacingLeft=4;spacingRight=4;overflow=hidden;rotatable=0;points=[[0,0.5],[1,0.5]];portConstraint=eastwest;whiteSpace=wrap;html=1;" parent="BYPssGS1QmJ-BvraYVSo-23" vertex="1">
          <mxGeometry y="26" width="220" height="54" as="geometry" />
        </mxCell>
        <mxCell id="BYPssGS1QmJ-BvraYVSo-25" value="" style="line;strokeWidth=1;fillColor=none;align=left;verticalAlign=middle;spacingTop=-1;spacingLeft=3;spacingRight=3;rotatable=0;labelPosition=right;points=[];portConstraint=eastwest;strokeColor=inherit;" parent="BYPssGS1QmJ-BvraYVSo-23" vertex="1">
          <mxGeometry y="80" width="220" height="8" as="geometry" />
        </mxCell>
        <mxCell id="BYPssGS1QmJ-BvraYVSo-26" value="+ toString: String" style="text;strokeColor=none;fillColor=none;align=left;verticalAlign=top;spacingLeft=4;spacingRight=4;overflow=hidden;rotatable=0;points=[[0,0.5],[1,0.5]];portConstraint=eastwest;whiteSpace=wrap;html=1;" parent="BYPssGS1QmJ-BvraYVSo-23" vertex="1">
          <mxGeometry y="88" width="220" height="32" as="geometry" />
        </mxCell>
        <mxCell id="BYPssGS1QmJ-BvraYVSo-30" value="" style="endArrow=none;html=1;rounded=0;exitX=1;exitY=0.904;exitDx=0;exitDy=0;exitPerimeter=0;entryX=-0.005;entryY=0.87;entryDx=0;entryDy=0;entryPerimeter=0;" parent="1" source="BYPssGS1QmJ-BvraYVSo-11" target="BYPssGS1QmJ-BvraYVSo-16" edge="1">
          <mxGeometry width="50" height="50" relative="1" as="geometry">
            <mxPoint x="240" y="464.40999999999997" as="sourcePoint" />
            <mxPoint x="311" y="464.40999999999997" as="targetPoint" />
          </mxGeometry>
        </mxCell>
        <mxCell id="BYPssGS1QmJ-BvraYVSo-32" value="" style="endArrow=none;html=1;rounded=0;" parent="1" source="BYPssGS1QmJ-BvraYVSo-16" target="ycWbgAkya2sAXwkcMK6t-5" edge="1">
          <mxGeometry width="50" height="50" relative="1" as="geometry">
            <mxPoint x="530" y="450.66200000000015" as="sourcePoint" />
            <mxPoint x="600" y="450" as="targetPoint" />
            <Array as="points">
              <mxPoint x="565.24" y="450.35" />
            </Array>
          </mxGeometry>
        </mxCell>
        <mxCell id="BYPssGS1QmJ-BvraYVSo-36" value="1" style="text;html=1;align=center;verticalAlign=middle;resizable=0;points=[];autosize=1;strokeColor=none;fillColor=none;" parent="1" vertex="1">
          <mxGeometry x="570" y="410" width="30" height="30" as="geometry" />
        </mxCell>
        <mxCell id="BYPssGS1QmJ-BvraYVSo-37" value="0...*" style="text;html=1;align=center;verticalAlign=middle;resizable=0;points=[];autosize=1;strokeColor=none;fillColor=none;" parent="1" vertex="1">
          <mxGeometry x="530" y="410" width="40" height="30" as="geometry" />
        </mxCell>
        <mxCell id="BYPssGS1QmJ-BvraYVSo-38" value="0..*" style="text;html=1;align=center;verticalAlign=middle;resizable=0;points=[];autosize=1;strokeColor=none;fillColor=none;" parent="1" vertex="1">
          <mxGeometry x="270" y="429.99999999999994" width="40" height="30" as="geometry" />
        </mxCell>
        <mxCell id="BYPssGS1QmJ-BvraYVSo-39" value="1" style="text;html=1;align=center;verticalAlign=middle;resizable=0;points=[];autosize=1;strokeColor=none;fillColor=none;" parent="1" vertex="1">
          <mxGeometry x="240" y="429.99999999999994" width="30" height="30" as="geometry" />
        </mxCell>
        <mxCell id="ycWbgAkya2sAXwkcMK6t-3" value="" style="endArrow=block;endSize=16;endFill=0;html=1;rounded=0;entryX=0.484;entryY=1.075;entryDx=0;entryDy=0;entryPerimeter=0;" parent="1" target="BYPssGS1QmJ-BvraYVSo-26" edge="1">
          <mxGeometry width="160" relative="1" as="geometry">
            <mxPoint x="419.72" y="400" as="sourcePoint" />
            <mxPoint x="420.0200000000002" y="350.00400000000013" as="targetPoint" />
            <Array as="points">
              <mxPoint x="419.72" y="390.74" />
            </Array>
          </mxGeometry>
        </mxCell>
        <mxCell id="TTgkUkUKpYFXbl8t6bdi-5" value="" style="endArrow=none;html=1;rounded=0;exitX=0.5;exitY=0;exitDx=0;exitDy=0;entryX=0.524;entryY=1.039;entryDx=0;entryDy=0;entryPerimeter=0;" parent="1" source="BYPssGS1QmJ-BvraYVSo-1" target="BYPssGS1QmJ-BvraYVSo-13" edge="1">
          <mxGeometry width="50" height="50" relative="1" as="geometry">
            <mxPoint x="400" y="560" as="sourcePoint" />
            <mxPoint x="450" y="510" as="targetPoint" />
            <Array as="points" />
          </mxGeometry>
        </mxCell>
        <mxCell id="TTgkUkUKpYFXbl8t6bdi-6" value="1" style="text;html=1;align=center;verticalAlign=middle;resizable=0;points=[];autosize=1;strokeColor=none;fillColor=none;" parent="1" vertex="1">
          <mxGeometry x="140" y="660" width="30" height="30" as="geometry" />
        </mxCell>
        <mxCell id="TTgkUkUKpYFXbl8t6bdi-7" value="0..*" style="text;html=1;align=center;verticalAlign=middle;resizable=0;points=[];autosize=1;strokeColor=none;fillColor=none;" parent="1" vertex="1">
          <mxGeometry x="140" y="560" width="40" height="30" as="geometry" />
        </mxCell>
      </root>
    </mxGraphModel>
  </diagram>
</mxfile>
